<svg xmlns="http://www.w3.org/2000/svg" viewBox="0 0 50 50">
  <path d="M5 4 A 1.0001 1.0001 0 0 0 4 5L4 45 A 1.0001 1.0001 0 0 0 5 46L24 46 A 1.0001 1.0001 0 0 0 25 45L25 35.5L25 14.5L25 5 A 1.0001 1.0001 0 0 0 24 4L5 4 z M 25 14.5C25 20.287145 29.712855 25 35.5 25C41.287145 25 46 20.287145 46 14.5C46 8.7128548 41.287145 4 35.5 4C29.712855 4 25 8.7128548 25 14.5 z M 35.5 25C29.712855 25 25 29.712855 25 35.5C25 41.287145 29.712855 46 35.5 46C41.287145 46 46 41.287145 46 35.5C46 29.712855 41.287145 25 35.5 25 z M 6 6L23 6L23 44L6 44L6 6 z M 35.5 6C40.206265 6 44 9.793735 44 14.5C44 19.206265 40.206265 23 35.5 23C30.793735 23 27 19.206265 27 14.5C27 9.793735 30.793735 6 35.5 6 z M 35.5 27C40.206265 27 44 30.793735 44 35.5C44 40.206265 40.206265 44 35.5 44C30.793735 44 27 40.206265 27 35.5C27 30.793735 30.793735 27 35.5 27 z" fill="#BDBDB8" />
</svg>